<svg width="358" height="51" viewBox="0 0 358 51" fill="none" xmlns="http://www.w3.org/2000/svg">
<rect opacity="0.2" x="0.5" y="0.5" width="357" height="49.152" rx="1.5" stroke="black"/>
<path opacity="0.2" d="M167.537 21.8447H169.071C169.001 19.8695 167.179 18.393 164.648 18.393C162.142 18.393 160.174 19.8503 160.174 22.0492C160.174 23.8134 161.452 24.8617 163.498 25.4498L165.108 25.91C166.489 26.2935 167.716 26.7793 167.716 28.0833C167.716 29.5151 166.336 30.4611 164.52 30.4611C162.961 30.4611 161.58 29.7708 161.452 28.2878H159.816C159.969 30.4356 161.708 31.893 164.52 31.893C167.537 31.893 169.25 30.231 169.25 28.1089C169.25 25.6543 166.924 24.8617 165.569 24.5038L164.239 24.1458C163.267 23.8901 161.708 23.3788 161.708 21.9725C161.708 20.7197 162.858 19.7992 164.597 19.7992C166.182 19.7992 167.384 20.5535 167.537 21.8447ZM174.541 31.893C176.254 31.893 177.149 30.9725 177.456 30.3333H177.533V31.6628H179.041V25.1941C179.041 22.0748 176.664 21.7168 175.411 21.7168C173.928 21.7168 172.24 22.2282 171.473 24.018L172.905 24.5293C173.237 23.8134 174.024 23.0464 175.462 23.0464C176.849 23.0464 177.533 23.7814 177.533 25.0407V25.0918C177.533 25.8205 176.791 25.7566 175.002 25.9867C173.18 26.2232 171.192 26.6259 171.192 28.8759C171.192 30.7935 172.675 31.893 174.541 31.893ZM174.771 30.5378C173.57 30.5378 172.7 30.0009 172.7 28.9526C172.7 27.802 173.749 27.4441 174.925 27.2907C175.564 27.214 177.277 27.035 177.533 26.7282V28.1089C177.533 29.3361 176.561 30.5378 174.771 30.5378ZM189.472 21.8447H187.835L185.125 29.6685H185.023L182.312 21.8447H180.676L184.307 31.6628H185.841L189.472 21.8447ZM195.228 31.8674C197.222 31.8674 198.679 30.8702 199.14 29.3873L197.682 28.9782C197.299 30.0009 196.41 30.5123 195.228 30.5123C193.457 30.5123 192.236 29.3681 192.166 27.2651H199.293V26.6259C199.293 22.9697 197.12 21.7168 195.074 21.7168C192.415 21.7168 190.651 23.8134 190.651 26.8305C190.651 29.8475 192.39 31.8674 195.228 31.8674ZM192.166 25.9611C192.268 24.4334 193.348 23.0719 195.074 23.0719C196.711 23.0719 197.759 24.2992 197.759 25.9611H192.166Z" fill="black"/>
</svg>
